<mxfile host="65bd71144e">
    <diagram id="6Fns2pfPVaXQ8b0poTO0" name="Page-1">
        <mxGraphModel dx="2668" dy="2148" grid="1" gridSize="10" guides="1" tooltips="1" connect="1" arrows="1" fold="1" page="1" pageScale="1" pageWidth="850" pageHeight="1100" math="0" shadow="0">
            <root>
                <mxCell id="0"/>
                <mxCell id="1" parent="0"/>
                <mxCell id="39" value="" style="rounded=0;whiteSpace=wrap;html=1;fontSize=18;" parent="1" vertex="1">
                    <mxGeometry x="80" y="-30" width="1450" height="680" as="geometry"/>
                </mxCell>
                <mxCell id="2" value="" style="edgeStyle=orthogonalEdgeStyle;rounded=0;orthogonalLoop=1;jettySize=auto;html=1;" parent="1" source="3" target="7" edge="1">
                    <mxGeometry relative="1" as="geometry"/>
                </mxCell>
                <mxCell id="3" value="Login" style="rounded=1;whiteSpace=wrap;html=1;" parent="1" vertex="1">
                    <mxGeometry x="130" y="290" width="120" height="60" as="geometry"/>
                </mxCell>
                <mxCell id="4" style="edgeStyle=orthogonalEdgeStyle;rounded=0;orthogonalLoop=1;jettySize=auto;html=1;" parent="1" source="25" target="14" edge="1">
                    <mxGeometry relative="1" as="geometry"/>
                </mxCell>
                <mxCell id="5" style="edgeStyle=orthogonalEdgeStyle;rounded=0;orthogonalLoop=1;jettySize=auto;html=1;entryX=0;entryY=0.5;entryDx=0;entryDy=0;" parent="1" source="25" target="12" edge="1">
                    <mxGeometry relative="1" as="geometry"/>
                </mxCell>
                <mxCell id="7" value="Passar informações dele e validar no email a conta&lt;br&gt;" style="whiteSpace=wrap;html=1;rounded=1;" parent="1" vertex="1">
                    <mxGeometry x="310" y="290" width="120" height="60" as="geometry"/>
                </mxCell>
                <mxCell id="8" value="" style="edgeStyle=orthogonalEdgeStyle;rounded=0;orthogonalLoop=1;jettySize=auto;html=1;" parent="1" source="9" target="15" edge="1">
                    <mxGeometry relative="1" as="geometry"/>
                </mxCell>
                <mxCell id="9" value="Pets que deu match" style="rounded=1;whiteSpace=wrap;html=1;" parent="1" vertex="1">
                    <mxGeometry x="900" y="555" width="120" height="60" as="geometry"/>
                </mxCell>
                <mxCell id="44" style="edgeStyle=none;html=1;entryX=0;entryY=0.5;entryDx=0;entryDy=0;fontSize=27;" parent="1" source="12" target="20" edge="1">
                    <mxGeometry relative="1" as="geometry"/>
                </mxCell>
                <mxCell id="12" value="Profile" style="rounded=1;whiteSpace=wrap;html=1;" parent="1" vertex="1">
                    <mxGeometry x="900" y="70" width="130" height="60" as="geometry"/>
                </mxCell>
                <mxCell id="13" value="" style="edgeStyle=orthogonalEdgeStyle;rounded=0;orthogonalLoop=1;jettySize=auto;html=1;" parent="1" source="14" target="17" edge="1">
                    <mxGeometry relative="1" as="geometry"/>
                </mxCell>
                <mxCell id="14" value="Carrocel de pet&lt;br&gt;" style="rounded=1;whiteSpace=wrap;html=1;" parent="1" vertex="1">
                    <mxGeometry x="900" y="290" width="120" height="60" as="geometry"/>
                </mxCell>
                <mxCell id="15" value="Chat 1:1" style="whiteSpace=wrap;html=1;rounded=1;" parent="1" vertex="1">
                    <mxGeometry x="1100" y="555" width="120" height="60" as="geometry"/>
                </mxCell>
                <mxCell id="16" value="" style="edgeStyle=orthogonalEdgeStyle;rounded=0;orthogonalLoop=1;jettySize=auto;html=1;" parent="1" source="17" target="19" edge="1">
                    <mxGeometry relative="1" as="geometry"/>
                </mxCell>
                <mxCell id="17" value="Da o like e o deslike" style="whiteSpace=wrap;html=1;rounded=1;" parent="1" vertex="1">
                    <mxGeometry x="1100" y="290" width="120" height="60" as="geometry"/>
                </mxCell>
                <mxCell id="18" style="edgeStyle=orthogonalEdgeStyle;rounded=0;orthogonalLoop=1;jettySize=auto;html=1;entryX=1;entryY=0.5;entryDx=0;entryDy=0;" parent="1" source="19" target="27" edge="1">
                    <mxGeometry relative="1" as="geometry">
                        <mxPoint x="1200" y="440" as="targetPoint"/>
                        <Array as="points">
                            <mxPoint x="1360" y="450"/>
                        </Array>
                    </mxGeometry>
                </mxCell>
                <mxCell id="19" value="der like enviar notificação para quem esta doando" style="whiteSpace=wrap;html=1;rounded=1;" parent="1" vertex="1">
                    <mxGeometry x="1300" y="290" width="120" height="60" as="geometry"/>
                </mxCell>
                <mxCell id="20" value="Info pessoais" style="whiteSpace=wrap;html=1;rounded=1;" parent="1" vertex="1">
                    <mxGeometry x="1170" y="70" width="120" height="60" as="geometry"/>
                </mxCell>
                <mxCell id="22" value="" style="edgeStyle=orthogonalEdgeStyle;rounded=0;orthogonalLoop=1;jettySize=auto;html=1;entryX=0;entryY=0.5;entryDx=0;entryDy=0;" parent="1" source="7" target="25" edge="1">
                    <mxGeometry relative="1" as="geometry">
                        <mxPoint x="430" y="320" as="sourcePoint"/>
                        <mxPoint x="710" y="450" as="targetPoint"/>
                    </mxGeometry>
                </mxCell>
                <mxCell id="23" value="" style="edgeStyle=orthogonalEdgeStyle;rounded=0;orthogonalLoop=1;jettySize=auto;html=1;entryX=0;entryY=0.5;entryDx=0;entryDy=0;" parent="1" source="7" target="25" edge="1">
                    <mxGeometry relative="1" as="geometry">
                        <mxPoint x="430" y="320" as="sourcePoint"/>
                        <mxPoint x="710" y="180" as="targetPoint"/>
                    </mxGeometry>
                </mxCell>
                <mxCell id="24" value="" style="edgeStyle=orthogonalEdgeStyle;rounded=0;orthogonalLoop=1;jettySize=auto;html=1;" parent="1" source="7" target="25" edge="1">
                    <mxGeometry relative="1" as="geometry">
                        <mxPoint x="430" y="320" as="sourcePoint"/>
                        <mxPoint x="710" y="320" as="targetPoint"/>
                    </mxGeometry>
                </mxCell>
                <mxCell id="38" style="edgeStyle=none;html=1;entryX=0;entryY=0.5;entryDx=0;entryDy=0;fontSize=18;" parent="1" source="25" target="9" edge="1">
                    <mxGeometry relative="1" as="geometry">
                        <Array as="points">
                            <mxPoint x="760" y="320"/>
                            <mxPoint x="760" y="580"/>
                        </Array>
                    </mxGeometry>
                </mxCell>
                <mxCell id="25" value="Caso confirmado, ter acesso ao app, caso não, ter acesso somente no profile" style="rounded=1;whiteSpace=wrap;html=1;" parent="1" vertex="1">
                    <mxGeometry x="500" y="290" width="120" height="60" as="geometry"/>
                </mxCell>
                <mxCell id="26" style="edgeStyle=orthogonalEdgeStyle;rounded=0;orthogonalLoop=1;jettySize=auto;html=1;entryX=0.5;entryY=0;entryDx=0;entryDy=0;" parent="1" source="27" target="9" edge="1">
                    <mxGeometry relative="1" as="geometry"/>
                </mxCell>
                <mxCell id="27" value="Aceitando a notificação, vincular ao usuario no pet q deu certo" style="rounded=1;whiteSpace=wrap;html=1;" parent="1" vertex="1">
                    <mxGeometry x="1070" y="420" width="120" height="60" as="geometry"/>
                </mxCell>
                <mxCell id="28" value="&lt;font style=&quot;font-size: 16px;&quot;&gt;USER&lt;br&gt;&lt;br&gt;ID: uuid&lt;br&gt;name&lt;br&gt;lastname&lt;br&gt;username&lt;br&gt;description&lt;br&gt;genre&lt;br&gt;locale&lt;br&gt;profilephoto&lt;br&gt;petid&lt;br&gt;active&lt;br&gt;acceptPet&lt;br&gt;petAdoptId&lt;br&gt;ChatId&lt;/font&gt;" style="rounded=1;whiteSpace=wrap;html=1;" parent="1" vertex="1">
                    <mxGeometry x="40" y="750" width="200" height="300" as="geometry"/>
                </mxCell>
                <mxCell id="29" value="&lt;font style=&quot;font-size: 17px;&quot;&gt;PET&lt;br&gt;&lt;br&gt;ID: uuid&lt;br&gt;name&lt;br&gt;description&lt;br&gt;temperament&lt;br&gt;sex&lt;br&gt;age&lt;br&gt;race&lt;br&gt;vaccines&lt;br&gt;photos&lt;br&gt;&lt;/font&gt;" style="rounded=1;whiteSpace=wrap;html=1;" parent="1" vertex="1">
                    <mxGeometry x="340" y="750" width="200" height="300" as="geometry"/>
                </mxCell>
                <mxCell id="30" value="&lt;font style=&quot;font-size: 18px;&quot;&gt;Chat&lt;br&gt;Id&lt;br&gt;UserId&lt;br&gt;UserId&lt;/font&gt;" style="rounded=1;whiteSpace=wrap;html=1;" parent="1" vertex="1">
                    <mxGeometry x="660" y="870" width="143" height="110" as="geometry"/>
                </mxCell>
                <mxCell id="32" value="Recursos Educacionais" style="whiteSpace=wrap;html=1;rounded=1;" parent="1" vertex="1">
                    <mxGeometry x="1280" y="880" width="120" height="60" as="geometry"/>
                </mxCell>
                <mxCell id="33" value="eShop/Descontos?" style="rounded=1;whiteSpace=wrap;html=1;" parent="1" vertex="1">
                    <mxGeometry x="1100" y="770" width="120" height="60" as="geometry"/>
                </mxCell>
                <mxCell id="34" value="Text" style="text;html=1;align=center;verticalAlign=middle;resizable=0;points=[];autosize=1;strokeColor=none;fillColor=none;fontSize=18;" parent="1" vertex="1">
                    <mxGeometry x="-190" y="640" width="60" height="40" as="geometry"/>
                </mxCell>
                <mxCell id="35" value="&lt;font style=&quot;font-size: 16px;&quot;&gt;USER&lt;br&gt;&lt;br&gt;ID: uuid&lt;br&gt;name&lt;br&gt;lastname&lt;br&gt;username&lt;br&gt;description&lt;br&gt;genre&lt;br&gt;locale&lt;br&gt;profilephoto&lt;br&gt;petid&lt;br&gt;active&lt;br&gt;acceptPet&lt;br&gt;petAdoptId&lt;br&gt;ChatId&lt;/font&gt;" style="rounded=1;whiteSpace=wrap;html=1;" parent="1" vertex="1">
                    <mxGeometry x="1700" y="770" width="200" height="300" as="geometry"/>
                </mxCell>
                <mxCell id="40" value="" style="whiteSpace=wrap;html=1;aspect=fixed;" parent="1" vertex="1">
                    <mxGeometry x="3490" y="-90" width="80" height="80" as="geometry"/>
                </mxCell>
                <mxCell id="41" value="&lt;font style=&quot;font-size: 27px;&quot;&gt;ONG&lt;/font&gt;" style="text;html=1;align=center;verticalAlign=middle;resizable=0;points=[];autosize=1;strokeColor=none;fillColor=none;" parent="1" vertex="1">
                    <mxGeometry x="70" y="-85" width="80" height="50" as="geometry"/>
                </mxCell>
                <mxCell id="42" value="" style="rounded=0;whiteSpace=wrap;html=1;fontSize=18;" parent="1" vertex="1">
                    <mxGeometry x="1610" y="-30" width="1450" height="680" as="geometry"/>
                </mxCell>
                <mxCell id="43" value="ONG ADMIN" style="text;html=1;align=center;verticalAlign=middle;resizable=0;points=[];autosize=1;strokeColor=none;fillColor=none;fontSize=27;" parent="1" vertex="1">
                    <mxGeometry x="1610" y="-75" width="180" height="50" as="geometry"/>
                </mxCell>
                <mxCell id="45" value="CRUD&amp;nbsp;DE PET" style="rounded=1;whiteSpace=wrap;html=1;fontSize=27;" parent="1" vertex="1">
                    <mxGeometry x="2130" y="240" width="230" height="80" as="geometry"/>
                </mxCell>
                <mxCell id="46" value="&lt;font style=&quot;font-size: 30px;&quot; face=&quot;Courier New&quot;&gt;Login&lt;/font&gt;" style="rounded=1;whiteSpace=wrap;html=1;" vertex="1" parent="1">
                    <mxGeometry x="1720" y="220" width="210" height="90" as="geometry"/>
                </mxCell>
                <mxCell id="47" value="&lt;font style=&quot;font-size: 30px;&quot; face=&quot;Courier New&quot;&gt;Notificações&lt;/font&gt;" style="rounded=1;whiteSpace=wrap;html=1;" vertex="1" parent="1">
                    <mxGeometry x="2130" y="55" width="270" height="90" as="geometry"/>
                </mxCell>
                <mxCell id="48" value="&lt;font style=&quot;font-size: 30px;&quot; face=&quot;Courier New&quot;&gt;Profile&lt;/font&gt;" style="rounded=1;whiteSpace=wrap;html=1;" vertex="1" parent="1">
                    <mxGeometry x="1730" y="410" width="210" height="90" as="geometry"/>
                </mxCell>
                <mxCell id="49" value="&lt;font face=&quot;Courier New&quot;&gt;&lt;span style=&quot;font-size: 30px;&quot;&gt;ADM/Funcionario&lt;/span&gt;&lt;/font&gt;" style="rounded=1;whiteSpace=wrap;html=1;" vertex="1" parent="1">
                    <mxGeometry x="2040" y="405" width="330" height="95" as="geometry"/>
                </mxCell>
                <mxCell id="50" value="&lt;font style=&quot;font-size: 30px;&quot; face=&quot;Courier New&quot;&gt;Chat&lt;/font&gt;" style="rounded=1;whiteSpace=wrap;html=1;" vertex="1" parent="1">
                    <mxGeometry x="2530" y="410" width="210" height="90" as="geometry"/>
                </mxCell>
            </root>
        </mxGraphModel>
    </diagram>
</mxfile>